<svg width="500" height="500" viewBox="0 0 500 500" fill="none" xmlns="http://www.w3.org/2000/svg">
<path d="M310 172.5C310 166.5 308.5 165 308.5 165L310 172.5ZM310 172.5C310.107 175.345 311 174.5 308.5 179.5C306 184.5 305 184.5 305 184.5L307 181L310 172.5Z" stroke="currentColor" stroke-width="3"/>
<path d="M265.45 12.5C268.5 15 266.902 51.3877 266.902 51.3877L265.45 93.5014L261.819 125.45L260.367 137.067L256.01 149.411L250.202 161.029L241.488 177.729L221.884 214.034L208.814 243.078L205.91 249.613L201.553 255.422L197.923 261.23L193.566 265.587L189.209 269.944L184.127 273.574L178.318 276.478L173.235 277.931L166.7 278.657L161.618 279.383L157.987 280.835L155.083 282.287L152.904 283.739L150.726 285.918L150 288.822V291L151.452 293.179L153.63 296.083L155.809 298.261L159.439 300.44L162.344 301.892L165.974 302.618C169.605 302.618 171.347 302.618 175.413 302.618C179.48 302.618 184.853 299.956 187.757 298.261L189.935 297.535H192.84L195.018 298.261L199.375 299.714L203.005 301.166L205.91 301.892H208.088L224.062 302.618C225.998 302.618 230.742 302.182 234.228 300.44C237.713 298.697 243.909 294.873 246.571 293.179L254.558 286.644L260.367 278.657L265.45 268.491L269.806 258.326L271.985 252.517L275.615 246.708L278.52 243.804L282.15 240.9L287.959 237.995L295.22 234.365L306.837 229.282L320.633 224.925C323.054 223.957 328.62 221.731 331.525 220.569C337.334 217.083 343.626 210.887 346.047 208.225C346.047 208.225 348.225 206.773 348.225 201.69C348.225 196.607 348.225 195.881 348.225 195.881C348.225 195.881 348.225 190.073 348.225 187.894C348.225 185.716 346.047 179.907 346.047 179.907L343.868 171.194L340.238 161.029L337.334 152.315L333.703 142.15C333.703 142.15 332.251 137.793 331.525 135.615C330.799 133.437 330.799 131.259 330.799 129.806C330.799 128.354 330.799 106.571 330.799 106.571L332.251 93.5014L334.429 79.7055L338.06 63.7313L342.416 44.1267C342.416 44.1267 348.274 22.8566 349 18.5C349.726 14.1434 349.677 12.5 349.677 12.5" stroke="currentColor" stroke-width="5"/>
<path d="M98.8638 390.64H75.5838L71.5838 402H62.0638L81.9838 346.32H92.5438L112.464 402H102.864L98.8638 390.64ZM96.3038 383.2L87.2638 357.36L78.1438 383.2H96.3038ZM146.245 394.64H165.045V402H137.125V346.4H146.245V394.64ZM197.792 353.76V370.08H216.992V377.52H197.792V394.56H219.392V402H188.672V346.32H219.392V353.76H197.792ZM285.505 362.96C285.505 365.787 284.838 368.453 283.505 370.96C282.172 373.467 280.038 375.52 277.105 377.12C274.172 378.667 270.412 379.44 265.825 379.44H255.745V402H246.625V346.4H265.825C270.092 346.4 273.692 347.147 276.625 348.64C279.612 350.08 281.825 352.053 283.265 354.56C284.758 357.067 285.505 359.867 285.505 362.96ZM265.825 372C269.292 372 271.878 371.227 273.585 369.68C275.292 368.08 276.145 365.84 276.145 362.96C276.145 356.88 272.705 353.84 265.825 353.84H255.745V372H265.825ZM335.563 402.56C330.39 402.56 325.616 401.36 321.243 398.96C316.923 396.507 313.483 393.12 310.923 388.8C308.416 384.427 307.163 379.52 307.163 374.08C307.163 368.64 308.416 363.76 310.923 359.44C313.483 355.12 316.923 351.76 321.243 349.36C325.616 346.907 330.39 345.68 335.563 345.68C340.79 345.68 345.563 346.907 349.883 349.36C354.256 351.76 357.696 355.12 360.203 359.44C362.71 363.76 363.963 368.64 363.963 374.08C363.963 379.52 362.71 384.427 360.203 388.8C357.696 393.12 354.256 396.507 349.883 398.96C345.563 401.36 340.79 402.56 335.563 402.56ZM335.563 394.64C339.243 394.64 342.523 393.813 345.403 392.16C348.283 390.453 350.523 388.053 352.123 384.96C353.776 381.813 354.603 378.187 354.603 374.08C354.603 369.973 353.776 366.373 352.123 363.28C350.523 360.187 348.283 357.813 345.403 356.16C342.523 354.507 339.243 353.68 335.563 353.68C331.883 353.68 328.603 354.507 325.723 356.16C322.843 357.813 320.576 360.187 318.923 363.28C317.323 366.373 316.523 369.973 316.523 374.08C316.523 378.187 317.323 381.813 318.923 384.96C320.576 388.053 322.843 390.453 325.723 392.16C328.603 393.813 331.883 394.64 335.563 394.64ZM407.098 346.4C413.018 346.4 418.191 347.547 422.618 349.84C427.098 352.08 430.538 355.333 432.938 359.6C435.391 363.813 436.618 368.747 436.618 374.4C436.618 380.053 435.391 384.96 432.938 389.12C430.538 393.28 427.098 396.48 422.618 398.72C418.191 400.907 413.018 402 407.098 402H388.938V346.4H407.098ZM407.098 394.56C413.604 394.56 418.591 392.8 422.058 389.28C425.524 385.76 427.258 380.8 427.258 374.4C427.258 367.947 425.524 362.907 422.058 359.28C418.591 355.653 413.604 353.84 407.098 353.84H398.058V394.56H407.098Z" fill="currentColor"/>
<path d="M126.29 431.196C126.29 432.82 125.73 434.173 124.61 435.256C123.509 436.32 121.819 436.852 119.542 436.852H115.79V445H113.242V425.484H119.542C121.745 425.484 123.415 426.016 124.554 427.08C125.711 428.144 126.29 429.516 126.29 431.196ZM119.542 434.752C120.961 434.752 122.006 434.444 122.678 433.828C123.35 433.212 123.686 432.335 123.686 431.196C123.686 428.788 122.305 427.584 119.542 427.584H115.79V434.752H119.542ZM138.305 445.196C136.494 445.196 134.842 444.776 133.349 443.936C131.855 443.077 130.67 441.892 129.793 440.38C128.934 438.849 128.505 437.132 128.505 435.228C128.505 433.324 128.934 431.616 129.793 430.104C130.67 428.573 131.855 427.388 133.349 426.548C134.842 425.689 136.494 425.26 138.305 425.26C140.134 425.26 141.795 425.689 143.289 426.548C144.782 427.388 145.958 428.564 146.817 430.076C147.675 431.588 148.105 433.305 148.105 435.228C148.105 437.151 147.675 438.868 146.817 440.38C145.958 441.892 144.782 443.077 143.289 443.936C141.795 444.776 140.134 445.196 138.305 445.196ZM138.305 442.984C139.667 442.984 140.89 442.667 141.973 442.032C143.074 441.397 143.933 440.492 144.549 439.316C145.183 438.14 145.501 436.777 145.501 435.228C145.501 433.66 145.183 432.297 144.549 431.14C143.933 429.964 143.083 429.059 142.001 428.424C140.918 427.789 139.686 427.472 138.305 427.472C136.923 427.472 135.691 427.789 134.609 428.424C133.526 429.059 132.667 429.964 132.033 431.14C131.417 432.297 131.109 433.66 131.109 435.228C131.109 436.777 131.417 438.14 132.033 439.316C132.667 440.492 133.526 441.397 134.609 442.032C135.71 442.667 136.942 442.984 138.305 442.984ZM157.544 425.484C159.673 425.484 161.511 425.885 163.061 426.688C164.629 427.472 165.823 428.601 166.645 430.076C167.485 431.551 167.905 433.287 167.905 435.284C167.905 437.281 167.485 439.017 166.645 440.492C165.823 441.948 164.629 443.068 163.061 443.852C161.511 444.617 159.673 445 157.544 445H151.469V425.484H157.544ZM157.544 442.9C160.065 442.9 161.987 442.237 163.312 440.912C164.638 439.568 165.301 437.692 165.301 435.284C165.301 432.857 164.629 430.963 163.285 429.6C161.959 428.237 160.046 427.556 157.544 427.556H154.017V442.9H157.544ZM180.113 445.196C178.303 445.196 176.651 444.776 175.157 443.936C173.664 443.077 172.479 441.892 171.601 440.38C170.743 438.849 170.313 437.132 170.313 435.228C170.313 433.324 170.743 431.616 171.601 430.104C172.479 428.573 173.664 427.388 175.157 426.548C176.651 425.689 178.303 425.26 180.113 425.26C181.943 425.26 183.604 425.689 185.097 426.548C186.591 427.388 187.767 428.564 188.625 430.076C189.484 431.588 189.913 433.305 189.913 435.228C189.913 437.151 189.484 438.868 188.625 440.38C187.767 441.892 186.591 443.077 185.097 443.936C183.604 444.776 181.943 445.196 180.113 445.196ZM180.113 442.984C181.476 442.984 182.699 442.667 183.781 442.032C184.883 441.397 185.741 440.492 186.357 439.316C186.992 438.14 187.309 436.777 187.309 435.228C187.309 433.66 186.992 432.297 186.357 431.14C185.741 429.964 184.892 429.059 183.809 428.424C182.727 427.789 181.495 427.472 180.113 427.472C178.732 427.472 177.5 427.789 176.417 428.424C175.335 429.059 174.476 429.964 173.841 431.14C173.225 432.297 172.917 433.66 172.917 435.228C172.917 436.777 173.225 438.14 173.841 439.316C174.476 440.492 175.335 441.397 176.417 442.032C177.519 442.667 178.751 442.984 180.113 442.984ZM195.825 442.928H202.657V445H193.277V425.484H195.825V442.928ZM214.211 445.196C212.4 445.196 210.748 444.776 209.255 443.936C207.762 443.077 206.576 441.892 205.699 440.38C204.84 438.849 204.411 437.132 204.411 435.228C204.411 433.324 204.84 431.616 205.699 430.104C206.576 428.573 207.762 427.388 209.255 426.548C210.748 425.689 212.4 425.26 214.211 425.26C216.04 425.26 217.702 425.689 219.195 426.548C220.688 427.388 221.864 428.564 222.723 430.076C223.582 431.588 224.011 433.305 224.011 435.228C224.011 437.151 223.582 438.868 222.723 440.38C221.864 441.892 220.688 443.077 219.195 443.936C217.702 444.776 216.04 445.196 214.211 445.196ZM214.211 442.984C215.574 442.984 216.796 442.667 217.879 442.032C218.98 441.397 219.839 440.492 220.455 439.316C221.09 438.14 221.407 436.777 221.407 435.228C221.407 433.66 221.09 432.297 220.455 431.14C219.839 429.964 218.99 429.059 217.907 428.424C216.824 427.789 215.592 427.472 214.211 427.472C212.83 427.472 211.598 427.789 210.515 428.424C209.432 429.059 208.574 429.964 207.939 431.14C207.323 432.297 207.015 433.66 207.015 435.228C207.015 436.777 207.323 438.14 207.939 439.316C208.574 440.492 209.432 441.397 210.515 442.032C211.616 442.667 212.848 442.984 214.211 442.984ZM242.159 431.14C241.617 430.001 240.833 429.124 239.807 428.508C238.78 427.873 237.585 427.556 236.223 427.556C234.86 427.556 233.628 427.873 232.527 428.508C231.444 429.124 230.585 430.02 229.951 431.196C229.335 432.353 229.027 433.697 229.027 435.228C229.027 436.759 229.335 438.103 229.951 439.26C230.585 440.417 231.444 441.313 232.527 441.948C233.628 442.564 234.86 442.872 236.223 442.872C238.127 442.872 239.695 442.303 240.927 441.164C242.159 440.025 242.877 438.485 243.083 436.544H235.299V434.472H245.799V436.432C245.649 438.037 245.145 439.512 244.287 440.856C243.428 442.181 242.299 443.236 240.899 444.02C239.499 444.785 237.94 445.168 236.223 445.168C234.412 445.168 232.76 444.748 231.267 443.908C229.773 443.049 228.588 441.864 227.711 440.352C226.852 438.84 226.423 437.132 226.423 435.228C226.423 433.324 226.852 431.616 227.711 430.104C228.588 428.573 229.773 427.388 231.267 426.548C232.76 425.689 234.412 425.26 236.223 425.26C238.295 425.26 240.124 425.773 241.711 426.8C243.316 427.827 244.483 429.273 245.211 431.14H242.159ZM251.716 425.484V445H249.168V425.484H251.716ZM253.172 421.256L247.208 424.448V422.544L253.172 419.044V421.256ZM267.594 440.66H259.082L257.514 445H254.826L261.882 425.596H264.822L271.85 445H269.162L267.594 440.66ZM266.866 438.588L263.338 428.732L259.81 438.588H266.866ZM281.438 435.228C281.438 433.324 281.868 431.616 282.726 430.104C283.585 428.573 284.752 427.379 286.226 426.52C287.72 425.661 289.372 425.232 291.182 425.232C293.31 425.232 295.168 425.745 296.754 426.772C298.341 427.799 299.498 429.255 300.226 431.14H297.174C296.633 429.964 295.849 429.059 294.822 428.424C293.814 427.789 292.601 427.472 291.182 427.472C289.82 427.472 288.597 427.789 287.514 428.424C286.432 429.059 285.582 429.964 284.966 431.14C284.35 432.297 284.042 433.66 284.042 435.228C284.042 436.777 284.35 438.14 284.966 439.316C285.582 440.473 286.432 441.369 287.514 442.004C288.597 442.639 289.82 442.956 291.182 442.956C292.601 442.956 293.814 442.648 294.822 442.032C295.849 441.397 296.633 440.492 297.174 439.316H300.226C299.498 441.183 298.341 442.629 296.754 443.656C295.168 444.664 293.31 445.168 291.182 445.168C289.372 445.168 287.72 444.748 286.226 443.908C284.752 443.049 283.585 441.864 282.726 440.352C281.868 438.84 281.438 437.132 281.438 435.228ZM306.567 442.928H313.399V445H304.019V425.484H306.567V442.928ZM318.653 425.484V445H316.105V425.484H318.653ZM320.109 421.256L314.145 424.448V422.544L320.109 419.044V421.256ZM338.34 445H335.792L325.544 429.46V445H322.996V425.456H325.544L335.792 440.968V425.456H338.34V445ZM345.231 425.484V445H342.683V425.484H345.231ZM348.622 435.228C348.622 433.324 349.051 431.616 349.91 430.104C350.769 428.573 351.935 427.379 353.41 426.52C354.903 425.661 356.555 425.232 358.366 425.232C360.494 425.232 362.351 425.745 363.938 426.772C365.525 427.799 366.682 429.255 367.41 431.14H364.358C363.817 429.964 363.033 429.059 362.006 428.424C360.998 427.789 359.785 427.472 358.366 427.472C357.003 427.472 355.781 427.789 354.698 428.424C353.615 429.059 352.766 429.964 352.15 431.14C351.534 432.297 351.226 433.66 351.226 435.228C351.226 436.777 351.534 438.14 352.15 439.316C352.766 440.473 353.615 441.369 354.698 442.004C355.781 442.639 357.003 442.956 358.366 442.956C359.785 442.956 360.998 442.648 362.006 442.032C363.033 441.397 363.817 440.492 364.358 439.316H367.41C366.682 441.183 365.525 442.629 363.938 443.656C362.351 444.664 360.494 445.168 358.366 445.168C356.555 445.168 354.903 444.748 353.41 443.908C351.935 443.049 350.769 441.864 349.91 440.352C349.051 438.84 348.622 437.132 348.622 435.228ZM382.739 440.66H374.227L372.659 445H369.971L377.027 425.596H379.967L386.995 445H384.307L382.739 440.66ZM382.011 438.588L378.483 428.732L374.955 438.588H382.011Z" fill="currentColor"/>
<line x1="100.5" y1="310.5" x2="399.5" y2="310.5" stroke="currentColor" stroke-linecap="square"/>
<rect x="12.5" y="16.5" width="475" height="475" rx="37.5" stroke="currentColor" stroke-width="5"/>
</svg>
